<mxfile host="app.diagrams.net" modified="2022-07-17T03:42:10.841Z" agent="5.0 (Macintosh; Intel Mac OS X 10_15_7) AppleWebKit/537.36 (KHTML, like Gecko) Chrome/103.0.0.0 Safari/537.36" etag="rqLGRFJwDvD9x5tL2UzD" version="20.1.1" type="github">
  <diagram id="3228e29e-7158-1315-38df-8450db1d8a1d" name="Page-1">
    <mxGraphModel dx="1298" dy="699" grid="0" gridSize="10" guides="1" tooltips="1" connect="1" arrows="1" fold="1" page="1" pageScale="1" pageWidth="600" pageHeight="300" background="#EFF1F3" math="0" shadow="0">
      <root>
        <mxCell id="0" />
        <mxCell id="1" parent="0" />
        <mxCell id="21531" value="基于字节流" style="ellipse;strokeColor=none;html=1;fontColor=#FFFFFF;fontSize=25;shadow=0;fillColor=#7EC4C3;" parent="1" vertex="1">
          <mxGeometry x="390" y="90" width="150" height="150" as="geometry" />
        </mxCell>
        <mxCell id="21532" value="面向连接" style="ellipse;strokeColor=none;html=1;fontColor=#FFFFFF;fontSize=25;shadow=0;fillColor=#35699A;" parent="1" vertex="1">
          <mxGeometry x="40" y="90" width="150" height="150" as="geometry" />
        </mxCell>
        <mxCell id="21533" value="可靠的" style="ellipse;strokeColor=none;html=1;fontColor=#FFFFFF;fontSize=25;shadow=0;fillColor=#538AAF;" parent="1" vertex="1">
          <mxGeometry x="215" y="90" width="150" height="150" as="geometry" />
        </mxCell>
        <mxCell id="iaZQ5ZHkEwGbRsQ7YX7E-21540" value="&lt;font color=&quot;#123f67&quot;&gt;TCP&lt;/font&gt;" style="text;html=1;strokeColor=none;fillColor=none;align=center;verticalAlign=middle;whiteSpace=wrap;rounded=0;fontSize=50;shadow=1;" parent="1" vertex="1">
          <mxGeometry x="270" y="40" width="40" height="20" as="geometry" />
        </mxCell>
      </root>
    </mxGraphModel>
  </diagram>
</mxfile>
